<svg width="97" height="141" fill="none" xmlns="http://www.w3.org/2000/svg"><path d="M18.134 60.844C24.134 69.844 22 70 22 74c-1 6.5-9.5 14-12.5 21.5S3.5 113 12 127s39.5 15 52.5 11c13.218-4.067 16.634-19.5 15.134-34.5-1.113-11.125-10.898-18.818-8-37.656 3-19.5 7.5-18 8-31.5s-11.5-28-20-31.5c-10.5-4.324-27-3.5-37 1s-19 14.5-20.5 27 10 21 16 30z" fill="url(#paint0_linear)"/><path d="M70.5 75.846a4 4 0 00-1.404-3.044L53.5 59.5v55h15a2 2 0 002-2V75.846z" fill="#F9D36E"/><path d="M53.5 102.5h17v10a2 2 0 01-2 2h-15v-12z" fill="#FF6F09"/><path fill="#FF6F09" fill-opacity=".33" d="M56.5 66.5h4v48h-4z"/><path d="M20 75.846a4 4 0 011.404-3.044L37 59.5v55H22a2 2 0 01-2-2V75.846z" fill="#F9D36E"/><path d="M20 101.5h17.5v13H22a2 2 0 01-2-2v-11z" fill="#FF6F09"/><path fill="#FF6F09" fill-opacity=".33" d="M29.5 66.5h4v48h-4z"/><path d="M34.5 22.5a2 2 0 012-2h17a2 2 0 012 2v95a2 2 0 01-2 2h-17a2 2 0 01-2-2v-95z" fill="#FFE7E7"/><path fill="#F2C6C6" fill-opacity=".4" d="M43.5 20.5h4v99h-4z"/><circle cx="45.5" cy="38.5" r="6" fill="#F9D16E"/><path d="M43.417 1.938a1.922 1.922 0 013.069.074C48.218 4.388 51.029 8.352 52.5 11c3.5 6.3 3 13 3 13h-21s-.424-7.227 2.624-13c1.564-2.962 4.482-6.791 6.293-9.062z" fill="#D5429E"/><g filter="url(#filter0_d)"><circle cx="45.5" cy="66.5" r="17" fill="#A428FC"/></g><path d="M55 112h15.5v.5a2 2 0 01-2 2H55V112zm-35 0h15.5v2.5H22a2 2 0 01-2-2v-.5z" fill="#FBB24D" fill-opacity=".78"/><path fill="#D5429E" d="M34.5 92.5h21v4h-21zm0 17h21v8a2 2 0 01-2 2h-17a2 2 0 01-2-2v-8z"/><path d="M49.948 65.474A4.48 4.48 0 0045.474 61 4.48 4.48 0 0041 65.474c0 1.216.49 2.32 1.28 3.127A4.457 4.457 0 0041 71.727a1.347 1.347 0 102.695 0c0-.98.798-1.779 1.78-1.779.98 0 1.778.799 1.778 1.78a1.347 1.347 0 102.695 0c0-1.217-.489-2.32-1.28-3.127a4.458 4.458 0 001.28-3.127zm-4.474-1.779c.981 0 1.78.798 1.78 1.78a1.78 1.78 0 01-1.78 1.778 1.78 1.78 0 01-1.778-1.779c0-.98.798-1.779 1.779-1.779z" fill="#fff"/><path d="M27.313 131.627a1.348 1.348 0 01-1.348-1.348 1.62 1.62 0 00-1.617-1.618 1.347 1.347 0 110-2.695 1.62 1.62 0 001.617-1.618 1.347 1.347 0 112.696 0 1.62 1.62 0 001.618 1.618 1.347 1.347 0 110 2.695 1.62 1.62 0 00-1.618 1.618c0 .744-.604 1.348-1.348 1.348zm67.952-92.385a1.347 1.347 0 01-1.082 1.57 1.62 1.62 0 00-1.298 1.883 1.347 1.347 0 11-2.651.488 1.62 1.62 0 00-1.884-1.298 1.347 1.347 0 11-.488-2.651 1.62 1.62 0 001.299-1.884 1.347 1.347 0 112.65-.488 1.62 1.62 0 001.885 1.298 1.347 1.347 0 011.569 1.082zM18.307 20.614c-.357 0-.7-.141-.952-.395l-2.96-2.96a1.347 1.347 0 010-1.905l2.96-2.96a1.348 1.348 0 011.905 0l2.96 2.96c.526.526.526 1.38 0 1.906l-2.96 2.96a1.348 1.348 0 01-.953.394zm-1.053-4.307l1.053 1.054 1.054-1.054-1.054-1.054-1.053 1.054z" fill="#3AD6FD"/><path d="M90.251 123.236c.065.352-.012.715-.216 1.009l-2.375 3.446a1.347 1.347 0 01-1.874.345l-3.447-2.375a1.348 1.348 0 01-.344-1.875l2.375-3.446a1.347 1.347 0 011.874-.345l3.447 2.375c.294.203.496.514.56.866zm-4.045 1.816l.846-1.227-1.228-.846-.845 1.227 1.227.846z" fill="#FF7EB8"/><path d="M9.251 69.236c.065.352-.012.715-.216 1.009L6.66 73.69a1.347 1.347 0 01-1.874.345L1.34 71.661a1.348 1.348 0 01-.345-1.874L3.37 66.34a1.347 1.347 0 011.874-.345l3.447 2.375c.294.203.496.514.56.866zm-4.045 1.816l.846-1.227-1.228-.846-.845 1.227 1.227.846z" fill="#F9D36E"/><defs><linearGradient id="paint0_linear" x1="-1.837" y1="47.115" x2="86.923" y2="55.918" gradientUnits="userSpaceOnUse"><stop offset=".049" stop-color="#FFDBED"/><stop offset=".999" stop-color="#D2DEFF"/></linearGradient><filter id="filter0_d" x="26.5" y="49.5" width="38" height="40" filterUnits="userSpaceOnUse" color-interpolation-filters="sRGB"><feFlood flood-opacity="0" result="BackgroundImageFix"/><feColorMatrix in="SourceAlpha" values="0 0 0 0 0 0 0 0 0 0 0 0 0 0 0 0 0 0 127 0"/><feOffset dy="4"/><feGaussianBlur stdDeviation="1"/><feColorMatrix values="0 0 0 0 0.643137 0 0 0 0 0.156863 0 0 0 0 0.988235 0 0 0 0.06 0"/><feBlend in2="BackgroundImageFix" result="effect1_dropShadow"/><feBlend in="SourceGraphic" in2="effect1_dropShadow" result="shape"/></filter></defs></svg>