<svg width="144" height="140" fill="none" xmlns="http://www.w3.org/2000/svg"><path d="M141.84 75.118c-3.187-9.329-10.279-16.215-18.827-19.461a11.526 11.526 0 01-7.436-10.627l-.005-.311c-.407-17.407-14.956-31.355-32.365-31.056-10.267.176-19.35 5.217-25.04 12.916-4.902 6.63-12.531 10.772-20.776 10.767-.242 0-.485.003-.728.008-16.688.365-30.88 14.684-31.102 31.374C5.324 86.5 19.658 100.98 37.374 100.98c13.732 0 25.43-8.7 29.887-20.888 1.167-3.189 4.624-4.898 7.893-3.981.04.01.082.022.123.034 2.991.826 4.975 3.676 4.73 6.77a31.696 31.696 0 001.563 12.613c5.53 16.478 23.5 25.521 40.023 20.129 16.903-5.516 25.978-23.769 20.247-40.538z" fill="url(#paint0_linear)"/><path d="M104.993 104.993c19.329-19.328 19.329-50.666 0-69.995-19.328-19.329-50.666-19.329-69.995 0-19.329 19.329-19.329 50.667 0 69.995 19.329 19.329 50.667 19.329 69.995 0z" fill="#D2DEFF"/><path d="M104.673 36.555c-2.651 1.652-5.6 3.097-8.771 4.314-3.175-7.339-7.537-13.3-12.703-17.113.006-.025-1.69-1.301-2.363-2.071-.082.75-.573 2.35-.8 3.048.897.521 2.2 1.678 2.2 1.678l.001-.003c4.484 3.525 8.296 8.851 11.134 15.368-6.702 2.24-14.248 3.511-22.013 3.643V32.612l-2.696-.006V45.42c-5.468-.09-10.794-.727-15.867-1.9.128-.43.234-.87.32-1.316a1.7 1.7 0 01-.163.024c-.88.079-1.77.084-2.646.194a10.827 10.827 0 01-1.866 3.815c.439.302.867.622 1.3.928.33.169.658.34.986.509.38-.518.727-1.06 1.032-1.63 5.4 1.283 11.076 1.98 16.904 2.072V68.65H41.163c.09-5.448.726-10.762 1.891-15.824.112-.028.222-.061.333-.092l-.052-.105c-.109-.22-.228-.438-.33-.662-.142-.314-.303-.365-.185-.297-.6-.332-.676-.937-.443-1.453-.554.135-1.126.225-1.71.272a7.313 7.313 0 01-.648 1.663c-.09.373-.193.731-.292 1.07h.077c.135 0 .268-.005.403-.01-1.07 4.96-1.655 10.14-1.74 15.437h-16.59l-1.347.015a43.769 43.769 0 000 2.68l1.346.001h16.593c.146 9.002 1.758 17.712 4.636 25.286-3.475 1.336-6.7 2.934-9.585 4.772l-1.04.86a49.933 49.933 0 001.833 2.009l1.053-.843c2.647-1.648 5.587-3.089 8.749-4.303a54.997 54.997 0 001.87 3.903s.782 1.57 1.017 1.855c.166.202.364.243.412.454.811-.369 1.386-.712 2.289-.872l-1.163-2.373a52.117 52.117 0 01-1.882-3.879c6.697-2.238 14.239-3.508 22.006-3.64v23.524l-.002 1.381a49.708 49.708 0 0011.56-1.034l2.853-2.099c1.946-1.423 3.808-3.174 5.564-5.242 0 0 1.121-1.422 1.72-2.103 0 0-2.636-1.135-2.902-.804-.172.214-1.134 1.466-1.134 1.466-4.458 5.13-9.59 8.02-14.964 8.435V94.573c2.837.049 5.644.253 8.393.597l2.783.345c-.078-1.247-.149-1.54-.203-2.88l-2.715-.196a81.073 81.073 0 00-8.258-.562V71.344h11.153c.067-1.246.038-1.547.126-2.693-.848-.004-2.714-.002-2.714-.002h-8.565V48.115c8.11-.134 16.01-1.476 23.031-3.843 1.754 4.607 3.04 9.725 3.774 15.161 0 0 .221 1.853.354 2.832l2.71-.037c-.05-.573-.319-2.625-.319-2.625-.745-5.813-2.111-11.296-3.993-16.24 3.484-1.339 6.715-2.942 9.604-4.785l1.065-.804a59.911 59.911 0 00-1.767-1.948l-1.144.729zm-36.01 55.322c-8.113.134-16.007 1.475-23.024 3.84-2.774-7.279-4.33-15.675-4.475-24.373h27.498v20.533z" fill="#B7C5FF"/><path d="M52.007 43.71c0 6.738-5.463 12.203-12.204 12.203-6.504 0-11.815-5.085-12.181-11.495A49.772 49.772 0 0138.837 31.54c.32-.024.64-.038.966-.038 6.741 0 12.204 5.466 12.204 12.206zM82.25 24.534c0 6.738-5.463 12.203-12.203 12.203-6.741 0-12.204-5.465-12.204-12.203 0-.891.097-1.764.278-2.6a49.593 49.593 0 0111.89-1.438c4.125 0 8.133.503 11.964 1.456.18.832.275 1.696.275 2.582zm37.261 45.461c0 20.197-12.09 37.566-29.43 45.265l-6.89-4.286a2.678 2.678 0 01-1.243-1.895c-.716-4.948-1.174-12.524-1.174-21.02 0-7.888.396-14.984 1.025-19.916a2.688 2.688 0 012.668-2.348h34.866c.118 1.384.178 2.787.178 4.2z" fill="#9FB0FE"/><path d="M56.883 23.709c-2.494 1.83-4.824 4.173-6.94 6.983 0 0-1.304 1.628-1.781 2.215.973.967 1.052 1.185 1.605 2.462.317-.607 1.826-2.369 1.826-2.369 1.91-2.653 6.242-6.63 6.242-6.63s1.592-1.087 2.338-1.366a10.779 10.779 0 01-.85-2.822c-1.032.516-2.444 1.51-2.44 1.527z" fill="#B7C5FF"/><path d="M70.01 119.498c27.34 0 49.502-22.163 49.502-49.502 0-27.339-22.163-49.501-49.502-49.501-27.339 0-49.502 22.162-49.502 49.501 0 27.34 22.163 49.502 49.502 49.502z" fill="url(#paint1_linear)"/><path d="M48.423 48.298c4.766-4.766 4.766-12.492 0-17.257-4.765-4.765-12.49-4.765-17.256 0-4.765 4.765-4.765 12.491 0 17.256 4.765 4.766 12.491 4.766 17.256 0z" fill="#3AD6FD"/><path d="M44.277 37.454a4.48 4.48 0 00-4.474-4.474 4.48 4.48 0 00-4.474 4.474c0 1.216.49 2.319 1.28 3.127a4.457 4.457 0 00-1.28 3.126 1.347 1.347 0 102.695 0c0-.98.798-1.779 1.78-1.779.98 0 1.778.798 1.778 1.78a1.347 1.347 0 102.695 0c0-1.217-.489-2.32-1.28-3.127a4.458 4.458 0 001.28-3.127zm-4.473-1.779c.98 0 1.778.798 1.778 1.779a1.78 1.78 0 01-1.778 1.779c-.981 0-1.78-.798-1.78-1.779 0-.98.799-1.779 1.78-1.779z" fill="#fff"/><path d="M78.665 29.127c4.765-4.765 4.765-12.49 0-17.256-4.766-4.766-12.492-4.766-17.257 0-4.765 4.765-4.765 12.491 0 17.256 4.765 4.766 12.491 4.766 17.257 0z" fill="#D5429E"/><path d="M74.52 18.278a4.48 4.48 0 00-4.474-4.474 4.48 4.48 0 00-4.474 4.474c0 1.216.489 2.32 1.28 3.127a4.457 4.457 0 00-1.28 3.126 1.347 1.347 0 102.695 0c0-.98.798-1.779 1.779-1.779.98 0 1.779.799 1.779 1.78a1.347 1.347 0 102.695 0c0-1.217-.49-2.32-1.28-3.127a4.457 4.457 0 001.28-3.127zM70.046 16.5a1.78 1.78 0 011.779 1.778 1.78 1.78 0 01-1.779 1.78c-.98 0-1.779-.799-1.779-1.78 0-.98.798-1.778 1.78-1.778z" fill="#fff"/><path d="M56.603 126.501c6.228-2.582 9.184-9.723 6.603-15.951-2.582-6.228-9.723-9.184-15.95-6.603-6.229 2.582-9.185 9.723-6.603 15.951 2.581 6.228 9.723 9.184 15.95 6.603z" fill="#3AD6FD"/><path d="M56.361 113.008a4.48 4.48 0 00-4.474-4.474 4.48 4.48 0 00-4.474 4.474 4.46 4.46 0 001.28 3.127 4.457 4.457 0 00-1.28 3.126 1.347 1.347 0 102.695 0c0-.98.798-1.778 1.779-1.778.98 0 1.779.798 1.779 1.778a1.347 1.347 0 102.695 0 4.453 4.453 0 00-1.28-3.126 4.458 4.458 0 001.28-3.127zm-4.474-1.778c.981 0 1.78.798 1.78 1.778 0 .981-.799 1.779-1.78 1.779a1.78 1.78 0 01-1.778-1.779c0-.98.797-1.778 1.778-1.778z" fill="#fff"/><path d="M126.192 106.129a2.686 2.686 0 001.243-1.897c.715-4.946 1.173-12.523 1.173-21.018 0-7.888-.395-14.984-1.024-19.918a2.689 2.689 0 00-2.67-2.346H84.469a2.69 2.69 0 00-2.67 2.346c-.63 4.934-1.024 12.03-1.024 19.918 0 8.495.458 16.072 1.173 21.018a2.685 2.685 0 001.243 1.897l18.3 11.379a6.063 6.063 0 006.401 0l18.3-11.379z" fill="#6583FE"/><path d="M104.692 69.027v16.584H88.866c-.009-.794-.014-1.594-.014-2.396 0-4.803.155-9.456.435-13.44a.807.807 0 01.806-.748h14.599z" fill="#A428FC"/><path d="M88.866 85.61h15.827v24.378l-14.719-9.152a.803.803 0 01-.377-.6c-.412-4.016-.671-9.183-.731-14.625zm31.667-2.396c0 .803-.006 1.602-.014 2.396h-15.827V69.027h14.598c.423 0 .775.326.805.748.283 3.983.438 8.636.438 13.44z" fill="#FFC4DF"/><path d="M120.519 85.61c-.06 5.443-.319 10.61-.732 14.626a.802.802 0 01-.377.6l-14.718 9.152V85.611h15.827z" fill="#A428FC"/><path d="M123.498 49.165a1.348 1.348 0 01-1.348-1.348 1.62 1.62 0 00-1.617-1.618 1.347 1.347 0 110-2.695 1.62 1.62 0 001.617-1.618 1.348 1.348 0 012.696 0 1.62 1.62 0 001.618 1.618 1.347 1.347 0 010 2.695 1.62 1.62 0 00-1.618 1.618c0 .745-.603 1.348-1.348 1.348z" fill="#97FFD2"/><path d="M27.621 117.316c-.357 0-.7-.142-.952-.395l-2.96-2.96a1.347 1.347 0 010-1.906l2.96-2.959a1.348 1.348 0 011.905 0l2.96 2.96a1.347 1.347 0 010 1.905l-2.96 2.96a1.347 1.347 0 01-.953.395zm-1.053-4.308l1.053 1.054 1.054-1.054-1.054-1.053-1.053 1.053z" fill="#FF7EB8"/><path d="M115.572 34.092c-.345 0-.69-.132-.953-.395l-2.959-2.96a1.348 1.348 0 010-1.905l2.959-2.96a1.349 1.349 0 011.906 0l2.96 2.96a1.347 1.347 0 010 1.905l-2.96 2.96a1.344 1.344 0 01-.953.395zm-1.053-4.308l1.053 1.054 1.054-1.054-1.054-1.053-1.053 1.053zM47.1 16.62c-.344 0-.69-.132-.952-.395l-2.96-2.96a1.348 1.348 0 010-1.905l2.96-2.96a1.347 1.347 0 011.905 0l2.96 2.96c.526.526.526 1.38 0 1.906l-2.96 2.96a1.342 1.342 0 01-.953.394zm-1.053-4.307l1.053 1.053 1.054-1.053-1.054-1.054-1.053 1.054z" fill="#6583FE"/><defs><linearGradient id="paint0_linear" x1="3.543" y1="40.176" x2="152.98" y2="85.124" gradientUnits="userSpaceOnUse"><stop stop-color="#F9D16E" stop-opacity=".4"/><stop offset="1" stop-color="#DCFDEE"/></linearGradient><linearGradient id="paint1_linear" x1="70.01" y1="20.494" x2="70.01" y2="119.498" gradientUnits="userSpaceOnUse"><stop offset=".003" stop-color="#FF7EB8" stop-opacity="0"/><stop offset="1" stop-color="#FF7EB8" stop-opacity=".6"/></linearGradient></defs></svg>