<svg width="134" height="118" fill="none" xmlns="http://www.w3.org/2000/svg"><path d="M100.135 34.682h-.15a28.995 28.995 0 01-21.839-9.942C69.937 15.328 57.837 9.398 44.353 9.457 19.879 9.566-.313 30.128.003 54.6.32 78.936 20.145 98.567 44.556 98.567a44.361 44.361 0 0019.249-4.363c5.023-2.411 11.01-1.776 15.433 1.612a33.913 33.913 0 0020.635 7.005c18.682.031 34.019-15.185 34.127-33.867.11-18.857-15.033-34.161-33.864-34.272z" fill="url(#paint0_linear)"/><path d="M127.786 72.713l-7.888-2.246a31.44 31.44 0 00-3.653-8.814l3.991-7.168a1.563 1.563 0 00-.261-1.865l-5.391-5.392a1.565 1.565 0 00-1.865-.26l-7.168 3.99a31.439 31.439 0 00-8.814-3.652l-2.246-7.888a1.563 1.563 0 00-1.504-1.135h-7.623c-.699 0-1.312.462-1.504 1.135l-2.246 7.888a31.433 31.433 0 00-8.813 3.653l-7.169-3.992a1.565 1.565 0 00-1.865.261l-5.391 5.392a1.565 1.565 0 00-.261 1.865l3.991 7.168a31.429 31.429 0 00-3.653 8.813l-7.888 2.247a1.563 1.563 0 00-1.135 1.504v7.623c0 .699.463 1.312 1.136 1.504l7.887 2.246a31.433 31.433 0 003.653 8.813l-3.991 7.169a1.565 1.565 0 00.261 1.865l5.391 5.391a1.566 1.566 0 001.865.261l7.169-3.991a31.404 31.404 0 008.813 3.652l2.246 7.888a1.563 1.563 0 001.504 1.136h7.623c.7 0 1.313-.463 1.504-1.136l2.246-7.888a31.414 31.414 0 008.814-3.652l7.168 3.991c.61.338 1.372.232 1.865-.261l5.391-5.391c.494-.494.6-1.256.261-1.865l-3.991-7.169a31.44 31.44 0 003.653-8.813l7.888-2.246a1.562 1.562 0 001.135-1.504v-7.623c0-.7-.462-1.313-1.135-1.504zm-38.61 24.88c-10.805 0-19.566-8.76-19.566-19.565 0-10.805 8.76-19.565 19.566-19.565 10.804 0 19.565 8.76 19.565 19.565 0 10.805-8.76 19.565-19.565 19.565z" fill="#9FB0FE"/><path d="M127.786 72.713l-7.888-2.246a31.44 31.44 0 00-3.653-8.814l3.991-7.168a1.563 1.563 0 00-.261-1.865l-5.391-5.392a1.565 1.565 0 00-1.865-.26l-7.168 3.99a31.439 31.439 0 00-8.814-3.652l-2.246-7.888a1.563 1.563 0 00-1.504-1.135h-7.623c-.699 0-1.312.462-1.504 1.135l-2.246 7.888a31.433 31.433 0 00-8.813 3.653l-7.169-3.992a1.565 1.565 0 00-1.865.261l-5.391 5.392a1.565 1.565 0 00-.261 1.865l3.991 7.168a31.429 31.429 0 00-3.653 8.813l-7.888 2.247a1.563 1.563 0 00-1.135 1.504v7.623c0 .699.463 1.312 1.136 1.504l7.887 2.246a31.433 31.433 0 003.653 8.813l-3.991 7.169a1.565 1.565 0 00.261 1.865l5.391 5.391a1.566 1.566 0 001.865.261l7.169-3.991a31.404 31.404 0 008.813 3.652l2.246 7.888a1.563 1.563 0 001.504 1.136h7.623c.7 0 1.313-.463 1.504-1.136l2.246-7.888a31.414 31.414 0 008.814-3.652l7.168 3.991c.61.338 1.372.232 1.865-.261l5.391-5.391c.494-.494.6-1.256.261-1.865l-3.991-7.169a31.44 31.44 0 003.653-8.813l7.888-2.246a1.563 1.563 0 001.135-1.504v-7.623c0-.7-.463-1.313-1.135-1.504zm-38.61 24.88c-10.805 0-19.566-8.76-19.566-19.565 0-10.805 8.76-19.565 19.566-19.565 10.804 0 19.565 8.76 19.565 19.565 0 10.805-8.76 19.565-19.565 19.565z" fill="url(#paint1_linear)"/><path d="M47.39 60.656l-4.26-1.213a16.975 16.975 0 00-1.972-4.759l2.155-3.87a.846.846 0 00-.14-1.008l-2.912-2.911a.845.845 0 00-1.007-.14l-3.87 2.154a16.977 16.977 0 00-4.76-1.972l-1.213-4.26a.844.844 0 00-.812-.612h-4.116a.844.844 0 00-.813.613l-1.213 4.259a16.975 16.975 0 00-4.759 1.972l-3.87-2.155a.846.846 0 00-1.008.141l-2.91 2.911a.845.845 0 00-.141 1.007l2.155 3.871a16.97 16.97 0 00-1.973 4.76l-4.259 1.212a.844.844 0 00-.613.812v4.116c0 .378.25.71.613.813l4.26 1.212a16.971 16.971 0 001.972 4.76l-2.155 3.87a.846.846 0 00.14 1.007l2.911 2.911a.845.845 0 001.008.141l3.87-2.155a16.975 16.975 0 004.76 1.972l1.212 4.26a.844.844 0 00.813.613h4.116c.377 0 .709-.25.812-.613l1.213-4.26a16.977 16.977 0 004.76-1.972l3.87 2.155a.846.846 0 001.007-.14l2.911-2.912a.845.845 0 00.141-1.007l-2.155-3.87a16.973 16.973 0 001.972-4.76l4.26-1.212a.844.844 0 00.612-.813v-4.116a.844.844 0 00-.612-.812zm-20.85 9.621a6.75 6.75 0 11.002-13.502 6.75 6.75 0 01-.001 13.502z" fill="#D5429E"/><path d="M76.029 20.021l-4.587-1.306a18.279 18.279 0 00-2.124-5.125l2.32-4.169a.91.91 0 00-.15-1.084l-3.136-3.135a.91.91 0 00-1.084-.152l-4.169 2.32a18.278 18.278 0 00-5.125-2.123L56.668.66a.909.909 0 00-.875-.66h-4.432a.909.909 0 00-.875.66L49.18 5.247a18.278 18.278 0 00-5.125 2.124l-4.169-2.32a.91.91 0 00-1.084.15l-3.135 3.136a.91.91 0 00-.151 1.085l2.32 4.168a18.277 18.277 0 00-2.124 5.125l-4.587 1.306a.91.91 0 00-.66.875v4.433c0 .406.27.763.66.874l4.587 1.306a18.277 18.277 0 002.124 5.126l-2.32 4.168a.91.91 0 00.151 1.085l3.135 3.134a.91.91 0 001.085.152l4.168-2.32a18.27 18.27 0 005.125 2.123l1.306 4.587a.91.91 0 00.875.66h4.433a.909.909 0 00.874-.66l1.307-4.587a18.279 18.279 0 005.125-2.123l4.168 2.32a.91.91 0 001.085-.152l3.134-3.134a.91.91 0 00.152-1.085l-2.32-4.168a18.278 18.278 0 002.123-5.125l4.587-1.307a.909.909 0 00.66-.874v-4.433a.91.91 0 00-.66-.875zM53.577 32.102a8.99 8.99 0 11.001-17.981 8.99 8.99 0 010 17.981z" fill="#F9D16E"/><path d="M89.215 76.969a3.17 3.17 0 00-2.006.802 3.186 3.186 0 00-.608 4.026c.384.637 1.243 1.21 1.679 1.362.436.151 1.504.113 2.12-.008.615-.121 1.322-.755 1.701-1.416a3.19 3.19 0 00-.782-4.083 3.167 3.167 0 00-2.104-.683zm1.185 3.148a1.066 1.066 0 01-1.018 1.105 1.057 1.057 0 01-.762-.283 1.064 1.064 0 01.677-1.844h.043a1.058 1.058 0 011.06 1.022z" fill="url(#paint2_linear)"/><path d="M94.65 72.908v-1.26a5.317 5.317 0 10-10.634 0v1.26a3.19 3.19 0 00-2.127 2.995v8.507a3.19 3.19 0 003.19 3.191h8.508a3.19 3.19 0 003.19-3.19v-8.508a3.191 3.191 0 00-2.126-2.995zm-8.507-1.26a3.19 3.19 0 016.38 0v1.064h-6.38V71.65zm8.508 12.763a1.064 1.064 0 01-1.064 1.063H85.08a1.063 1.063 0 01-1.063-1.064v-8.507a1.063 1.063 0 011.063-1.064h8.508a1.064 1.064 0 011.064 1.064v8.507z" fill="url(#paint3_linear)"/><defs><linearGradient id="paint0_linear" x1="-6.622" y1="40.878" x2="138.502" y2="78.123" gradientUnits="userSpaceOnUse"><stop offset=".049" stop-color="#FFDBED"/><stop offset=".999" stop-color="#D2DEFF"/></linearGradient><linearGradient id="paint1_linear" x1="89" y1="60.499" x2="95" y2="99.499" gradientUnits="userSpaceOnUse"><stop offset=".003" stop-color="#A428FC"/><stop offset="1" stop-color="#FF7EB8" stop-opacity=".6"/></linearGradient><linearGradient id="paint2_linear" x1="85.936" y1="70.626" x2="96.269" y2="71.447" gradientUnits="userSpaceOnUse"><stop stop-color="#1A68FF" stop-opacity=".49"/><stop offset="1" stop-color="#D117FF"/></linearGradient><linearGradient id="paint3_linear" x1="81.405" y1="44.898" x2="105.594" y2="46.224" gradientUnits="userSpaceOnUse"><stop stop-color="#1A68FF" stop-opacity=".49"/><stop offset="1" stop-color="#D117FF"/></linearGradient></defs></svg>