<svg width="137" height="137" fill="none" xmlns="http://www.w3.org/2000/svg"><path d="M110.015 41.515c-8.025 0-14.53-6.505-14.53-14.53C95.485 12.081 83.403 0 68.5 0 53.597 0 41.515 12.081 41.515 26.985c0 8.025-6.505 14.53-14.53 14.53C12.081 41.515 0 53.597 0 68.5c0 14.903 12.081 26.985 26.985 26.985 8.025 0 14.53 6.505 14.53 14.53C41.515 124.919 53.597 137 68.5 137c14.903 0 26.985-12.081 26.985-26.985 0-8.025 6.505-14.53 14.53-14.53C124.919 95.485 137 83.403 137 68.5c0-14.903-12.081-26.985-26.985-26.985z" fill="url(#paint0_linear)"/><path d="M96.798 19.622h-.803v-.802a1.338 1.338 0 10-2.676 0v.802h-.802a1.338 1.338 0 100 2.676h.802v.803a1.338 1.338 0 102.676 0v-.803h.803a1.338 1.338 0 100-2.676zm7.239 99.358h-.803v-.803a1.336 1.336 0 10-2.675 0v.803h-.803a1.338 1.338 0 100 2.676h.803v.803a1.337 1.337 0 102.675 0v-.803h.803a1.338 1.338 0 100-2.676z" fill="#8383FF"/><path d="M104.037 16.857a1.33 1.33 0 01-.946-.392l-1.195-1.194-1.194 1.194a1.338 1.338 0 01-1.892-1.891l2.141-2.141a1.336 1.336 0 011.891 0l2.141 2.14a1.337 1.337 0 01-.946 2.284zm-66.374 106.94c-.343 0-.685-.131-.946-.392l-1.195-1.195-1.195 1.195a1.338 1.338 0 01-1.892-1.892l2.141-2.141a1.338 1.338 0 011.892 0l2.14 2.141a1.338 1.338 0 01-.945 2.284z" fill="#FF6C6C"/><path d="M51.019 121.656c-.343 0-.685-.131-.946-.392l-1.195-1.195-1.195 1.195a1.337 1.337 0 11-1.892-1.892l2.141-2.14a1.337 1.337 0 011.892 0l2.14 2.14a1.338 1.338 0 01-.945 2.284z" fill="#FF9D33"/><path d="M120.956 34.49v66.823H16.044V34.491a4.603 4.603 0 014.605-4.605h95.702a4.603 4.603 0 014.605 4.605z" fill="#8383FF"/><path d="M120.957 53.385v27.774H95.994a1.34 1.34 0 01-1.338-1.338V54.722c0-.74.6-1.337 1.338-1.337h24.963z" fill="#4D4DFF"/><path d="M113.407 88.562H23.593c-.739 0-1.338-.6-1.338-1.338v-49.35c0-.739.599-1.338 1.338-1.338h89.814c.739 0 1.338.6 1.338 1.338v49.35c0 .739-.599 1.338-1.338 1.338z" fill="#fff"/><path d="M114.746 68.768v18.457c0 .739-.599 1.338-1.338 1.338H23.593c-.739 0-1.338-.6-1.338-1.338V68.768h92.491z" fill="#FFC599"/><path d="M114.746 68.768v12.391H95.994a1.34 1.34 0 01-1.338-1.338V68.768h20.09z" fill="#FF9D33"/><path d="M40.666 65.719H29.825a1.338 1.338 0 010-2.676h10.842a1.338 1.338 0 010 2.676zm7.225 9.166H29.824a1.338 1.338 0 010-2.676h18.067a1.338 1.338 0 010 2.676zm0 4.683H29.824a1.338 1.338 0 010-2.676h18.067a1.338 1.338 0 010 2.676zM30.238 60.889a1.338 1.338 0 100-2.676 1.338 1.338 0 000 2.676zm4.348 0a1.338 1.338 0 100-2.676 1.338 1.338 0 000 2.676z" fill="#8383FF"/><path d="M68.227 14.044c-10.603.148-19.134 9.018-18.885 19.62a19.076 19.076 0 004.168 11.482c3.782 4.741 6.016 10.515 6.298 16.545h17.385c.282-6.032 2.52-11.806 6.301-16.549a19.08 19.08 0 004.17-11.936c0-10.675-8.727-19.31-19.437-19.162z" fill="#F9D36E"/><path d="M65.056 63.03c-.74 0-1.338-.599-1.338-1.338v-12.84l-1.548-1.547a1.337 1.337 0 111.891-1.892l1.94 1.94c.251.25.392.591.392.946v13.394c0 .738-.598 1.337-1.337 1.337zm6.89 0a1.338 1.338 0 01-1.338-1.338V48.298c0-.355.14-.695.392-.946l1.94-1.94a1.337 1.337 0 111.892 1.892l-1.548 1.548v12.84c0 .739-.6 1.338-1.338 1.338z" fill="#FF7300"/><path d="M78.141 77.493h-19.28a1.338 1.338 0 01-1.338-1.337V63.029c0-.738.6-1.337 1.338-1.337h19.28c.739 0 1.338.599 1.338 1.337v13.127c0 .739-.599 1.337-1.338 1.337z" fill="#9494FF"/><path d="M76.498 77.494a7.998 7.998 0 01-15.995 0h15.995z" fill="#EBEBFF"/><path d="M75.51 81.344a7.961 7.961 0 00.988-3.85H60.503c0 1.396.358 2.707.987 3.85h14.02z" fill="#D9D9FF"/><path d="M80.816 65.239H56.184a1.334 1.334 0 00-.977 1.282c0 .614.415 1.125.977 1.283h24.632c.563-.158.978-.67.978-1.282 0-.614-.415-1.125-.978-1.283zm-24.632 8.2h24.632c.563-.158.978-.669.978-1.282 0-.614-.415-1.125-.978-1.283H56.184c-.562.158-.977.67-.977 1.282 0 .614.415 1.125.977 1.283z" fill="#4D4DFF"/><path d="M120.956 34.49v66.823H16.044V34.491a4.603 4.603 0 014.605-4.605h95.702a4.603 4.603 0 014.605 4.605z" fill="url(#paint1_linear)"/><path d="M124.111 75.58H95.995c-.739 0-1.338-.6-1.338-1.338v-25.1c0-.74.6-1.339 1.338-1.339h28.116c.738 0 1.338.6 1.338 1.338v25.1c0 .74-.6 1.338-1.338 1.338z" fill="#D5429E"/><path d="M125.449 55.48v-6.338c0-.738-.6-1.338-1.338-1.338H95.995c-.739 0-1.338.6-1.338 1.338v6.338h30.792z" fill="#FFC599"/><path d="M106.464 61.248v6.506a.802.802 0 001.207.694l5.573-3.254a.803.803 0 000-1.387l-5.573-3.253a.803.803 0 00-1.207.694z" fill="#fff"/><path d="M99.846 53.383a.936.936 0 100-1.873.936.936 0 000 1.873zm2.987 0a.936.936 0 10.001-1.873.936.936 0 00-.001 1.873zm2.988 0a.936.936 0 10.001-1.873.936.936 0 00-.001 1.873z" fill="#FF6C6C"/><path d="M128.971 97.653v6.745a2.675 2.675 0 01-2.676 2.676H10.707a2.675 2.675 0 01-2.676-2.676v-6.745a2.675 2.675 0 012.675-2.676H47.1c.388 0 .757.168 1.011.462l3.445 3.98h33.892l3.444-3.98a1.338 1.338 0 011.012-.462h36.392a2.675 2.675 0 012.676 2.676z" fill="#D9D9FF"/><defs><linearGradient id="paint0_linear" x1="116.954" y1="20.046" x2="-1.07" y2="138.07" gradientUnits="userSpaceOnUse"><stop stop-color="#71D8FB" stop-opacity=".09"/><stop offset="1" stop-color="#B7C5FF"/></linearGradient><linearGradient id="paint1_linear" x1="68.501" y1="101.313" x2="68.501" y2="29.886" gradientUnits="userSpaceOnUse"><stop stop-color="#FF4D4D" stop-opacity=".4"/><stop offset="1" stop-color="#FF4D4D" stop-opacity="0"/></linearGradient></defs></svg>