<svg width="62" height="24" fill="none" xmlns="http://www.w3.org/2000/svg"><path d="M14.152 11.473c1.778 1.025 2.668 2.571 2.668 4.64 0 1.72-.61 3.132-1.827 4.234C13.775 21.449 12.276 22 10.498 22H1.885V1.7h8.004c1.72 0 3.18.541 4.379 1.624 1.198 1.083 1.798 2.446 1.798 4.089 0 1.682-.638 3.035-1.914 4.06zM9.889 5.44H5.887v4.466h4.002c.618 0 1.13-.213 1.537-.638.425-.425.638-.957.638-1.595s-.203-1.17-.61-1.595c-.405-.425-.927-.638-1.565-.638zM5.887 18.259h4.61c.677 0 1.238-.222 1.683-.667.444-.464.667-1.044.667-1.74 0-.677-.223-1.237-.667-1.682-.445-.464-1.006-.696-1.682-.696H5.887v4.785zm23.801 4.147c-1.991 0-3.673-.445-5.046-1.334-1.373-.89-2.35-2.117-2.93-3.683l3.423-2.001c.792 2.069 2.349 3.103 4.669 3.103 1.083 0 1.895-.193 2.436-.58.541-.387.812-.909.812-1.566 0-.715-.32-1.266-.957-1.653-.638-.406-1.779-.841-3.422-1.305-1.779-.541-3.18-1.17-4.205-1.885-1.276-.947-1.914-2.34-1.914-4.176 0-1.856.648-3.316 1.943-4.379 1.295-1.102 2.87-1.653 4.727-1.653 1.624 0 3.064.396 4.32 1.189 1.258.793 2.234 1.914 2.93 3.364L33.11 7.79c-.812-1.74-2.107-2.61-3.886-2.61-.812 0-1.46.193-1.943.58-.483.367-.725.85-.725 1.45 0 .638.26 1.16.783 1.566.58.406 1.605.831 3.074 1.276l1.392.464c.251.077.686.242 1.305.493.58.213 1.005.416 1.276.609.947.58 1.585 1.18 1.914 1.798.503.812.754 1.769.754 2.87 0 1.876-.687 3.365-2.06 4.467-1.372 1.102-3.14 1.653-5.306 1.653zM43.148 1.7h8.061c2.784 0 5.104.976 6.96 2.929 1.876 1.933 2.814 4.34 2.814 7.22 0 2.882-.938 5.289-2.813 7.222C56.313 21.024 53.992 22 51.21 22h-8.063V1.7zm4.002 16.472h4.06c1.759 0 3.19-.58 4.291-1.74 1.102-1.199 1.654-2.726 1.654-4.582 0-1.875-.552-3.393-1.654-4.553-1.101-1.18-2.532-1.769-4.291-1.769h-4.06v12.644z" fill="#393E46"/><path fill-rule="evenodd" clip-rule="evenodd" d="M.885 23V.7h9.004c1.95 0 3.654.622 5.05 1.882 1.412 1.276 2.127 2.91 2.127 4.831 0 1.52-.455 2.845-1.358 3.93 1.396 1.182 2.112 2.796 2.112 4.77 0 1.988-.718 3.674-2.156 4.976-1.418 1.282-3.162 1.91-5.166 1.91H.885zm14.121-10.94a6.24 6.24 0 00-.854-.588c.279-.224.527-.464.745-.719.78-.913 1.169-2.027 1.169-3.341 0-1.643-.6-3.006-1.798-4.09-1.199-1.082-2.659-1.623-4.38-1.623H1.886V22h8.613c1.778 0 3.277-.551 4.495-1.653 1.218-1.102 1.827-2.513 1.827-4.234 0-1.705-.605-3.056-1.814-4.052zM10.71 8.57l.009-.01c.225-.225.345-.496.345-.887 0-.405-.12-.682-.333-.905-.2-.21-.452-.328-.842-.328H6.887v2.466h3.002c.361 0 .607-.112.813-.329l.008-.008zM5.887 9.906V5.44h4.002c.638 0 1.16.213 1.566.638.406.425.609.957.609 1.595s-.213 1.17-.638 1.595c-.406.425-.919.638-1.537.638H5.887zm5.578 4.963l-.007-.008c-.245-.256-.54-.388-.96-.388H6.887v2.785h3.61c.43 0 .728-.13.968-.367.246-.26.382-.583.382-1.04 0-.434-.132-.733-.374-.975l-.008-.008zm.715 2.722c-.445.445-1.006.667-1.682.667H5.887v-4.785h4.61c.677 0 1.238.232 1.683.696.444.445.667 1.005.667 1.682 0 .696-.223 1.276-.667 1.74zm8.304-.643l5.163-3.019.422 1.1c.336.877.806 1.47 1.381 1.852.579.385 1.343.609 2.354.609.994 0 1.56-.183 1.855-.394.282-.201.393-.422.393-.752 0-.348-.12-.583-.476-.798l-.009-.006-.009-.005c-.504-.321-1.52-.724-3.157-1.187l-.01-.002-.01-.003c-1.834-.559-3.344-1.225-4.486-2.022l-.012-.008-.011-.01c-1.572-1.166-2.318-2.881-2.318-4.978 0-2.116.753-3.872 2.302-5.146C25.346.913 27.155.294 29.224.294c1.794 0 3.423.44 4.854 1.343 1.43.901 2.527 2.172 3.297 3.777l.401.835-5.11 2.953-.462-.99c-.347-.742-.767-1.237-1.232-1.55-.46-.309-1.029-.482-1.748-.482-.656 0-1.061.155-1.319.36l-.01.009-.01.007c-.237.181-.33.372-.33.654 0 .31.104.541.379.761.447.306 1.334.69 2.768 1.124l.014.004 1.395.465c.296.092.758.268 1.36.512.582.214 1.09.445 1.465.706.993.613 1.784 1.312 2.23 2.135.604.987.888 2.123.888 3.37 0 2.156-.807 3.94-2.433 5.246-1.588 1.275-3.594 1.873-5.933 1.873-2.142 0-4.023-.48-5.59-1.495-1.558-1.009-2.67-2.411-3.323-4.175l-.291-.787zM36.3 13.416c-.329-.619-.967-1.218-1.914-1.798-.27-.193-.696-.396-1.276-.61a18.784 18.784 0 00-1.305-.492l-1.392-.464c-1.47-.445-2.494-.87-3.074-1.276-.522-.406-.783-.928-.783-1.566 0-.6.241-1.083.725-1.45.483-.387 1.13-.58 1.943-.58 1.453 0 2.583.58 3.39 1.741.182.26.347.55.496.869l3.364-1.943c-.696-1.45-1.672-2.571-2.93-3.364-1.256-.793-2.696-1.19-4.32-1.19-1.856.001-3.432.552-4.727 1.654C23.2 4.01 22.554 5.47 22.554 7.326c0 1.837.638 3.229 1.914 4.176 1.024.715 2.426 1.344 4.205 1.885 1.643.464 2.784.899 3.422 1.305.638.387.957.938.957 1.653 0 .657-.27 1.18-.812 1.566-.542.387-1.354.58-2.436.58-1.953 0-3.365-.733-4.235-2.198a5.912 5.912 0 01-.434-.905l-3.422 2c.58 1.567 1.556 2.795 2.929 3.684 1.373.89 3.055 1.334 5.046 1.334 2.165 0 3.934-.551 5.307-1.653 1.373-1.102 2.059-2.59 2.059-4.466 0-1.102-.252-2.06-.754-2.871zM42.148.7h9.061c3.046 0 5.63 1.08 7.682 3.236 2.067 2.134 3.092 4.795 3.092 7.914 0 3.119-1.025 5.78-3.092 7.914C56.84 21.92 54.255 23 51.21 23h-9.063V.7zm16.021 18.37c1.876-1.932 2.814-4.34 2.814-7.22s-.938-5.288-2.813-7.221C56.313 2.676 53.992 1.7 51.21 1.7h-8.063V22h8.063c2.783 0 5.103-.976 6.96-2.93zM54.777 7.987l-.006-.006c-.895-.958-2.051-1.452-3.562-1.452h-3.06v10.644h3.06c1.513 0 2.67-.486 3.562-1.423.905-.987 1.383-2.26 1.383-3.9 0-1.665-.482-2.92-1.378-3.863zM47.15 18.172V5.528h4.06c1.759 0 3.19.59 4.291 1.769 1.102 1.16 1.654 2.678 1.654 4.553 0 1.856-.552 3.383-1.654 4.582-1.101 1.16-2.532 1.74-4.291 1.74h-4.06z" fill="#393E46"/></svg>