<svg width="62" height="36" fill="none" xmlns="http://www.w3.org/2000/svg"><path d="M14.152 15.473c1.779 1.025 2.668 2.571 2.668 4.64 0 1.72-.609 3.132-1.827 4.234C13.775 25.449 12.277 26 10.498 26H1.885V5.7h8.004c1.72 0 3.18.541 4.379 1.624 1.199 1.083 1.798 2.446 1.798 4.089 0 1.682-.638 3.035-1.914 4.06zM9.889 9.441H5.887v4.466h4.002c.619 0 1.131-.213 1.537-.638.425-.425.638-.957.638-1.595s-.203-1.17-.609-1.595c-.406-.425-.928-.638-1.566-.638zM5.887 22.259h4.611c.677 0 1.237-.222 1.682-.667.445-.464.667-1.044.667-1.74 0-.677-.222-1.237-.667-1.682-.445-.464-1.005-.696-1.682-.696H5.887v4.785zm23.801 4.147c-1.991 0-3.673-.445-5.046-1.334-1.373-.89-2.349-2.117-2.929-3.683l3.422-2.001c.793 2.069 2.35 3.103 4.67 3.103 1.082 0 1.894-.193 2.435-.58.541-.387.812-.909.812-1.566 0-.715-.319-1.266-.957-1.653-.638-.406-1.779-.841-3.422-1.305-1.779-.541-3.18-1.17-4.205-1.885-1.276-.947-1.914-2.34-1.914-4.176 0-1.856.648-3.316 1.943-4.379 1.295-1.102 2.871-1.653 4.727-1.653 1.624 0 3.064.396 4.321 1.189 1.257.793 2.233 1.914 2.93 3.364L33.11 11.79c-.812-1.74-2.107-2.61-3.886-2.61-.812 0-1.46.193-1.943.58-.483.367-.725.85-.725 1.45 0 .638.261 1.16.783 1.566.58.406 1.605.831 3.074 1.276l1.392.464c.251.077.686.242 1.305.493.58.213 1.005.416 1.276.609.947.58 1.585 1.18 1.914 1.798.503.812.754 1.769.754 2.871 0 1.875-.686 3.364-2.059 4.466-1.373 1.102-3.142 1.653-5.307 1.653zM43.148 5.7h8.062c2.784 0 5.104.976 6.96 2.929 1.875 1.933 2.813 4.34 2.813 7.221 0 2.88-.938 5.288-2.813 7.221C56.314 25.024 53.994 26 51.21 26h-8.062V5.7zm4.002 16.472h4.06c1.759 0 3.19-.58 4.292-1.74 1.102-1.199 1.653-2.726 1.653-4.582 0-1.875-.551-3.393-1.653-4.553-1.102-1.18-2.533-1.769-4.292-1.769h-4.06v12.644z" fill="#393E46"/><path d="M14.152 15.473l-.626-.78-1.14.916 1.267.73.499-.866zm.841 8.874l-.67-.742.67.742zM1.885 26h-1v1h1v-1zm0-20.3v-1h-1v1h1zm12.383 1.624l.67-.742-.67.742zM5.887 9.441v-1h-1v1h1zm0 4.466h-1v1h1v-1zm5.539-.638l-.707-.707-.008.008-.008.008.723.691zm-5.539 8.99h-1v1h1v-1zm6.293-.667l.707.707.008-.007.007-.008-.722-.692zm0-3.422l-.722.692.007.008.008.007.707-.707zm-6.293-.696v-1h-1v1h1zm7.766-1.134c1.466.844 2.167 2.058 2.167 3.773h2c0-2.423-1.077-4.302-3.169-5.506l-.998 1.733zm2.167 3.773c0 1.453-.5 2.59-1.498 3.492l1.342 1.483c1.438-1.301 2.156-2.987 2.156-4.975h-2zm-1.498 3.492c-1.018.922-2.27 1.395-3.824 1.395v2c2.004 0 3.748-.629 5.166-1.912l-1.342-1.483zM10.498 25H1.885v2h8.613v-2zm-7.613 1V5.7h-2V26h2zm-1-19.3h8.004v-2H1.885v2zm8.004 0c1.49 0 2.707.46 3.709 1.366l1.34-1.484C13.543 5.322 11.84 4.7 9.89 4.7v2zm3.709 1.366c.984.89 1.468 1.98 1.468 3.347h2c0-1.92-.715-3.555-2.128-4.831l-1.34 1.484zm1.468 3.347c0 1.389-.508 2.451-1.54 3.28l1.252 1.56c1.52-1.22 2.288-2.865 2.288-4.84h-2zM9.889 8.441H5.887v2h4.002v-2zm-5.002 1v4.466h2V9.441h-2zm1 5.466h4.002v-2H5.887v2zm4.002 0c.876 0 1.655-.313 2.26-.947l-1.446-1.382c-.207.217-.453.329-.814.329v2zm2.244-.93c.625-.626.931-1.418.931-2.303h-2c0 .39-.12.662-.345.888l1.414 1.414zm.931-2.303c0-.871-.286-1.657-.886-2.285l-1.446 1.38c.212.223.332.5.332.905h2zm-.886-2.285c-.612-.641-1.404-.948-2.289-.948v2c.39 0 .643.119.843.329l1.446-1.381zm-6.291 13.87h4.611v-2H5.887v2zm4.611 0c.92 0 1.742-.313 2.39-.96l-1.415-1.414c-.242.242-.541.374-.975.374v2zm2.404-.975c.639-.666.945-1.502.945-2.432h-2c0 .462-.138.787-.389 1.048l1.444 1.384zm.945-2.432c0-.92-.313-1.742-.96-2.39l-1.414 1.415c.242.242.374.541.374.975h2zm-.945-2.374c-.644-.672-1.47-1.004-2.404-1.004v2c.42 0 .715.132.96.388l1.444-1.384zm-2.404-1.004H5.887v2h4.611v-2zm-5.611 1v4.785h2v-4.785h-2zm19.755 7.598l.544-.84-.544.84zm-2.929-3.683l-.505-.863-.724.423.291.787.938-.347zm3.422-2.001l.934-.358-.422-1.1-1.017.595.505.863zm7.105 2.523l.581.814-.58-.814zm-.145-3.219l-.537.844.01.005.009.006.518-.855zm-3.422-1.305l-.291.957.01.003.01.002.271-.962zm-4.205-1.885l-.596.803.012.009.012.008.572-.82zm.03-8.555l.634.773.006-.006.007-.005-.648-.762zm9.047-.464l-.533.846.533-.846zm2.93 3.364l.5.866.801-.463-.4-.836-.902.433zM33.11 11.79l-.906.423.461.989.945-.546-.5-.866zm-5.829-2.03l.605.796.01-.007.01-.008-.625-.781zm.058 3.016l-.614.79.02.015.02.014.574-.819zm3.074 1.276l.316-.949-.013-.004-.013-.004-.29.957zm1.392.464l-.316.949.01.003.012.004.294-.956zm1.305.493l-.376.926.016.007.016.006.344-.939zm1.276.609l-.581.814.029.02.03.019.522-.853zm1.914 1.798l-.883.47.015.028.018.028.85-.526zm-1.305 7.337l-.626-.78.626.78zm-5.307.653c-1.84 0-3.324-.41-4.502-1.173l-1.088 1.678c1.567 1.015 3.448 1.495 5.59 1.495v-2zm-4.502-1.173c-1.188-.77-2.028-1.823-2.535-3.191l-1.876.694c.654 1.764 1.766 3.166 3.323 4.175l1.088-1.678zm-2.968-1.98l3.422-2.002-1.01-1.726-3.422 2 1.01 1.727zm1.983-2.507c.457 1.191 1.16 2.15 2.142 2.802.978.65 2.152.943 3.461.943v-2c-1.01 0-1.775-.224-2.354-.609-.575-.382-1.045-.975-1.381-1.852l-1.868.716zm5.603 3.745c1.172 0 2.23-.204 3.017-.766l-1.162-1.628c-.295.211-.861.394-1.855.394v2zm3.017-.766c.8-.572 1.231-1.395 1.231-2.38h-2c0 .33-.11.55-.393.752l1.162 1.628zm1.231-2.38c0-1.083-.517-1.95-1.439-2.508l-1.036 1.71c.354.215.475.45.475.798h2zm-1.42-2.497c-.772-.491-2.038-.958-3.687-1.423l-.544 1.924c1.637.463 2.653.866 3.157 1.187l1.074-1.688zm-3.668-1.418c-1.722-.524-3.016-1.114-3.923-1.748l-1.145 1.64c1.141.797 2.65 1.463 4.486 2.022l.582-1.914zm-3.9-1.73c-.98-.728-1.51-1.798-1.51-3.374h-2c0 2.097.746 3.812 2.318 4.979l1.192-1.606zm-1.51-3.374c0-1.593.54-2.755 1.578-3.606l-1.27-1.546c-1.553 1.275-2.308 3.033-2.308 5.152h2zm1.591-3.617c1.098-.934 2.437-1.415 4.08-1.415v-2c-2.071 0-3.883.621-5.376 1.891l1.296 1.524zm4.08-1.415c1.452 0 2.704.352 3.787 1.035l1.067-1.692c-1.431-.903-3.06-1.343-4.855-1.343v2zm3.787 1.035c1.084.684 1.939 1.656 2.56 2.95l1.804-.865c-.77-1.605-1.869-2.876-3.297-3.777L33.012 7.33zm2.962 1.652l-3.364 1.943 1 1.732 3.364-1.943-1-1.732zm-1.958 2.386c-.465-.997-1.099-1.807-1.929-2.365-.835-.56-1.804-.822-2.863-.822v2c.72 0 1.288.173 1.748.483.465.312.885.807 1.232 1.55l1.812-.846zM29.224 8.18c-.968 0-1.858.232-2.568.8l1.25 1.56c.257-.205.662-.36 1.318-.36v-2zm-2.548.784c-.728.553-1.12 1.33-1.12 2.246h2c0-.282.092-.473.33-.654l-1.21-1.592zm-1.12 2.246c0 .96.414 1.768 1.17 2.355l1.227-1.578c-.289-.225-.397-.46-.397-.777h-2zm1.21 2.385c.72.504 1.877.966 3.357 1.414l.58-1.914c-1.458-.441-2.35-.83-2.79-1.138l-1.147 1.638zm3.33 1.406l1.393.464.632-1.898-1.392-.464-.632 1.898zm1.415.47c.204.064.602.213 1.223.464l.752-1.853a19.96 19.96 0 00-1.387-.522l-.588 1.912zm1.255.477c.554.203.879.37 1.039.484l1.162-1.628c-.381-.272-.907-.512-1.513-.734l-.688 1.878zm1.098.523c.876.536 1.344 1.02 1.553 1.414l1.766-.938c-.448-.843-1.256-1.558-2.275-2.182l-1.044 1.706zm1.586 1.471c.39.631.604 1.4.604 2.345h2c0-1.259-.289-2.404-.904-3.397l-1.7 1.052zm.604 2.345c0 1.595-.566 2.788-1.685 3.686l1.252 1.56c1.626-1.306 2.433-3.09 2.433-5.246h-2zm-1.685 3.686c-1.157.93-2.69 1.433-4.68 1.433v2c2.338 0 4.344-.598 5.932-1.873l-1.252-1.56zM43.148 5.7v-1h-1v1h1zM58.17 8.629l-.725.689.007.007.718-.696zm0 14.442l-.718-.696-.007.007.725.689zM43.148 26h-1v1h1v-1zm4.002-3.828h-1v1h1v-1zm8.352-1.74l.725.689.005-.006.006-.006-.736-.677zm0-9.135l-.731.683.006.006.725-.689zM47.15 9.528v-1h-1v1h1zM43.148 6.7h8.062v-2h-8.062v2zm8.062 0c2.52 0 4.575.871 6.235 2.618l1.45-1.378C56.843 5.781 54.257 4.7 51.21 4.7v2zm6.242 2.625c1.68 1.733 2.53 3.884 2.53 6.525h2c0-3.12-1.025-5.784-3.094-7.917l-1.436 1.392zm2.53 6.525c0 2.64-.85 4.792-2.53 6.525l1.436 1.392c2.07-2.133 3.095-4.796 3.095-7.917h-2zm-2.537 6.532C55.785 24.13 53.73 25 51.21 25v2c3.047 0 5.633-1.081 7.684-3.24l-1.45-1.378zM51.21 25h-8.062v2h8.062v-2zm-7.062 1V5.7h-2V26h2zm3.002-2.828h4.06v-2h-4.06v2zm4.06 0c2.003 0 3.706-.672 5.017-2.051l-1.45-1.378c-.894.94-2.052 1.429-3.567 1.429v2zm5.028-2.063c1.295-1.41 1.917-3.19 1.917-5.259h-2c0 1.643-.481 2.917-1.39 3.905l1.473 1.354zm1.917-5.259c0-2.085-.62-3.864-1.928-5.242l-1.45 1.378c.895.942 1.378 2.198 1.378 3.864h2zm-1.923-5.236c-1.309-1.4-3.014-2.086-5.022-2.086v2c1.51 0 2.666.494 3.561 1.452l1.461-1.366zM51.21 8.528h-4.06v2h4.06v-2zm-5.06 1v12.644h2V9.528h-2z" fill="#393E46"/></svg>